<svg id="SvgjsSvg1001" width="288" height="288" xmlns="http://www.w3.org/2000/svg" version="1.1" xmlns:xlink="http://www.w3.org/1999/xlink" xmlns:svgjs="http://svgjs.com/svgjs"><defs id="SvgjsDefs1002"></defs><g id="SvgjsG1008"><svg xmlns="http://www.w3.org/2000/svg" viewBox="0 0 32 32" width="288" height="288"><path fill="#0000ff" d="M6.762 0A6.746 6.746 0 0 0 0 6.762v18.476A6.746 6.746 0 0 0 6.762 32h18.476A6.746 6.746 0 0 0 32 25.238V6.762A6.746 6.746 0 0 0 25.238 0H6.762zm6.697 13a.5.5 0 0 1 .05 0h5a.5.5 0 1 1 0 1h-5a.5.5 0 0 1-.05-1zm0 3a.5.5 0 0 1 .05 0h5a.5.5 0 1 1 0 1h-5a.5.5 0 0 1-.05-1zm0 3a.5.5 0 0 1 .05 0h5a.5.5 0 1 1 0 1h-5a.5.5 0 0 1-.05-1z" class="color000000 svgShape color595bd4"></path></svg></g></svg>