<svg xmlns="http://www.w3.org/2000/svg" xmlns:se="http://svg-edit.googlecode.com" xmlns:xlink="http://www.w3.org/1999/xlink" xmlns:dc="http://purl.org/dc/elements/1.1/" xmlns:cc="http://creativecommons.org/ns#" xmlns:rdf="http://www.w3.org/1999/02/22-rdf-syntax-ns#" xmlns:inkscape="http://www.inkscape.org/namespaces/inkscape" width="149" height="149" style="">                                    <title>my vector image</title>                                    <!-- Created with Vector Paint - http://www.vectorpaint.yaks.com/ https://chrome.google.com/webstore/detail/hnbpdiengicdefcjecjbnjnoifekhgdo -->                                    <rect id="backgroundrect" width="100%" height="100%" x="0" y="0" fill="#FFFFFF" stroke="none"/>                                <g class="currentLayer" style=""><title>Layer 1</title><rect fill="#0000ff" stroke="none" stroke-width="2" stroke-linejoin="round" stroke-dashoffset="" fill-rule="nonzero" id="svg_4" x="0" y="0" width="149" height="149" style="color: rgb(0, 0, 0);" class="" rx="15" ry="15" fill-opacity="1"/><path fill="#0000ff" stroke-width="2" stroke-linejoin="round" stroke-dashoffset="" fill-rule="nonzero" marker-start="" marker-mid="" marker-end="" id="svg_11" d="M17.34121162599081,63.19272261825827 L33.41014618562065,63.19272261825827 L33.41014618562065,79.26165717789007 L17.34121162599081,79.26165717789007 L17.34121162599081,63.19272261825827 zM19.215920657946242,48.99849709058583 L19.215920657946242,61.31801358630108 L31.535437153665384,61.31801358630108 L31.535437153665384,48.99849709058583 L19.215920657946242,48.99849709058583 z" style="color: rgb(0, 0, 255);" class=""/><g class="" transform="rotate(44.17980194091797 44.410312652587876,37.48505401611328) " id="svg_1"><rect fill="#ffffff" stroke-width="2" stroke-linejoin="round" stroke-dashoffset="" fill-rule="nonzero" id="svg_15" x="21.756803512573242" y="24.45745277404785" width="34.770503997802734" height="25.416996002197266" style="color: rgb(0, 0, 255);" class="" fill-opacity="1" rx="5" ry="5"/><path fill="#ffffff" stroke-width="2" stroke-linejoin="round" stroke-dashoffset="" fill-rule="nonzero" marker-start="" marker-mid="" marker-end="" id="svg_18" d="M66.98945671756327,50.99110492489537 L57.86890414720767,45.85506911714905 L57.91538099840767,28.972504152744435 L67.06381967299528,23.97900333861277 L66.98945671756327,50.99110492489537 z" style="color: rgb(0, 0, 255);" class="" fill-opacity="1"/></g><path fill="" stroke-dashoffset="" fill-rule="nonzero" marker-start="" marker-mid="" marker-end="" id="svg_3" d="M76.27380602759786,27.00420555416246 L76.39716146295387,26.346309898930443 L76.80834626955091,26.346309898930443 L76.93170166075285,27.00420555416246 L76.27380602759786,27.00420555416246 z" style="color: rgb(0, 0, 255);"/><rect fill="#ffffff" stroke-dashoffset="" fill-rule="nonzero" id="svg_2" x="72" y="84" width="63" height="49" style="color: rgb(0, 0, 255);" class=""/><rect fill="#ffffff" stroke-dashoffset="" fill-rule="nonzero" id="svg_6" x="65" y="94" width="8" height="21" style="color: rgb(0, 0, 255);" class=""/><rect fill="#ffffff" stroke-dashoffset="" fill-rule="nonzero" x="134.8795166015625" y="94" width="8" height="21" style="color: rgb(0, 0, 255);" class="" id="svg_9"/><rect fill="#ffffff" stroke-dashoffset="" fill-rule="nonzero" x="99.06769561767578" y="69.42168426513672" width="5.980493545532227" height="15.698795318603516" style="color: rgb(0, 0, 255);" class="" id="svg_10"/><path fill="#ffffff" fill-opacity="1" stroke="none" stroke-opacity="1" stroke-width="1" stroke-dasharray="none" stroke-linejoin="miter" stroke-linecap="butt" stroke-dashoffset="" fill-rule="nonzero" opacity="1" marker-start="" marker-mid="" marker-end="" d="M96.44578313827515,65.59638547897339 C96.44578313827515,62.55771144582422 98.90710910512597,60.09638547897339 101.94578313827515,60.09638547897339 C104.98445717142432,60.09638547897339 107.44578313827515,62.55771144582422 107.44578313827515,65.59638547897339 C107.44578313827515,68.63505951212257 104.98445717142432,71.09638547897339 101.94578313827515,71.09638547897339 C98.90710910512597,71.09638547897339 96.44578313827515,68.63505951212257 96.44578313827515,65.59638547897339 z" id="svg_7" class=""/><rect fill="#0000ff" stroke-dashoffset="" fill-rule="nonzero" id="svg_12" x="81" y="117" width="46" height="8" style="color: rgb(0, 0, 255);"/><path fill="#0000ff" fill-opacity="1" stroke="none" stroke-opacity="1" stroke-width="1" stroke-dasharray="none" stroke-linejoin="miter" stroke-linecap="butt" stroke-dashoffset="" fill-rule="nonzero" opacity="1" marker-start="" marker-mid="" marker-end="" d="M79,102 C79,97.02762430939227 83.02762430939227,93 88,93 C92.97237569060773,93 97,97.02762430939227 97,102 C97,106.97237569060773 92.97237569060773,111 88,111 C83.02762430939227,111 79,106.97237569060773 79,102 Z" id="svg_14" class=""/><path fill="#0000ff" fill-opacity="1" stroke="none" stroke-opacity="1" stroke-width="1" stroke-dasharray="none" stroke-linejoin="miter" stroke-linecap="butt" stroke-dashoffset="" fill-rule="nonzero" opacity="1" marker-start="" marker-mid="" marker-end="" d="M106.95180702209473,102.9638557434082 C106.95180702209473,97.99148005280047 110.97943133148699,93.9638557434082 115.95180702209473,93.9638557434082 C120.92418271270246,93.9638557434082 124.95180702209473,97.99148005280047 124.95180702209473,102.9638557434082 C124.95180702209473,107.93623143401594 120.92418271270246,111.9638557434082 115.95180702209473,111.9638557434082 C110.97943133148699,111.9638557434082 106.95180702209473,107.93623143401594 106.95180702209473,102.9638557434082 z" class="" id="svg_17"/></g></svg>